<svg width="20" height="20" viewBox="0 0 20 20" fill="none" xmlns="http://www.w3.org/2000/svg">
<g id="editorial">
<path id="Vector" d="M7.50065 15H12.5007C12.7368 15 12.9347 14.9201 13.0944 14.7604C13.2541 14.6007 13.334 14.4028 13.334 14.1667C13.334 13.9305 13.2541 13.7326 13.0944 13.5729C12.9347 13.4132 12.7368 13.3333 12.5007 13.3333H7.50065C7.26454 13.3333 7.06662 13.4132 6.9069 13.5729C6.74718 13.7326 6.66732 13.9305 6.66732 14.1667C6.66732 14.4028 6.74718 14.6007 6.9069 14.7604C7.06662 14.9201 7.26454 15 7.50065 15ZM7.50065 11.6667H12.5007C12.7368 11.6667 12.9347 11.5868 13.0944 11.4271C13.2541 11.2674 13.334 11.0694 13.334 10.8333C13.334 10.5972 13.2541 10.3993 13.0944 10.2396C12.9347 10.0799 12.7368 9.99999 12.5007 9.99999H7.50065C7.26454 9.99999 7.06662 10.0799 6.9069 10.2396C6.74718 10.3993 6.66732 10.5972 6.66732 10.8333C6.66732 11.0694 6.74718 11.2674 6.9069 11.4271C7.06662 11.5868 7.26454 11.6667 7.50065 11.6667ZM5.00065 18.3333C4.54232 18.3333 4.14996 18.1701 3.82357 17.8437C3.49718 17.5174 3.33398 17.125 3.33398 16.6667V3.33332C3.33398 2.87499 3.49718 2.48263 3.82357 2.15624C4.14996 1.82985 4.54232 1.66666 5.00065 1.66666H10.9798C11.202 1.66666 11.4138 1.70832 11.6152 1.79166C11.8166 1.87499 11.9937 1.99305 12.1465 2.14582L16.1882 6.18749C16.3409 6.34027 16.459 6.51735 16.5423 6.71874C16.6257 6.92013 16.6673 7.13194 16.6673 7.35416V16.6667C16.6673 17.125 16.5041 17.5174 16.1777 17.8437C15.8513 18.1701 15.459 18.3333 15.0007 18.3333H5.00065ZM10.834 6.66666V3.33332H5.00065V16.6667H15.0007V7.49999H11.6673C11.4312 7.49999 11.2333 7.42013 11.0736 7.26041C10.9138 7.10069 10.834 6.90277 10.834 6.66666Z" fill="#ADADAD"/>
</g>
</svg>
