<svg width="19" height="19" viewBox="0 0 19 19" fill="none" xmlns="http://www.w3.org/2000/svg">
<g id="FolderNotchOpen">
<path id="Vector" d="M17.7266 8.27937C17.6222 8.13463 17.4848 8.0168 17.3259 7.93562C17.1669 7.85444 16.991 7.81224 16.8125 7.8125H15.6875V6.6875C15.6875 6.38913 15.569 6.10298 15.358 5.892C15.147 5.68103 14.8609 5.5625 14.5625 5.5625H9.68773L7.73797 4.1C7.54291 3.95458 7.30627 3.8757 7.06297 3.875H3.3125C3.01413 3.875 2.72798 3.99353 2.517 4.2045C2.30603 4.41548 2.1875 4.70163 2.1875 5V15.125C2.1875 15.2742 2.24676 15.4173 2.35225 15.5227C2.45774 15.6282 2.60082 15.6875 2.75 15.6875H15.343C15.461 15.6875 15.5761 15.6504 15.6719 15.5813C15.7677 15.5123 15.8393 15.4149 15.8766 15.3029L17.8798 9.29328C17.9362 9.12418 17.9517 8.94415 17.925 8.76791C17.8984 8.59168 17.8304 8.42426 17.7266 8.27937ZM7.06297 5L9.01273 6.4625C9.20775 6.60801 9.44442 6.6869 9.68773 6.6875H14.5625V7.8125H10.7959C10.5736 7.81249 10.3564 7.87831 10.1715 8.00164L8.76523 8.9375H5.38109C5.15605 8.93688 4.93603 9.00401 4.74968 9.13017C4.56332 9.25633 4.41926 9.43567 4.33625 9.64484L3.3125 12.2042V5H7.06297ZM14.938 14.5625H3.58109L5.38109 10.0625H8.76734C8.98958 10.0625 9.20684 9.99669 9.39172 9.87336L10.798 8.9375H16.8125L14.938 14.5625Z" fill="white"/>
</g>
</svg>
