<svg width="19" height="19" viewBox="0 0 19 19" fill="none" xmlns="http://www.w3.org/2000/svg">
<g id="FolderNotch">
<path id="Vector" d="M15.6875 5.5625H9.68773L7.73727 4.1C7.54225 3.95449 7.30558 3.8756 7.06227 3.875H3.3125C3.01413 3.875 2.72798 3.99353 2.517 4.2045C2.30603 4.41548 2.1875 4.70163 2.1875 5V14.5625C2.1875 14.8609 2.30603 15.147 2.517 15.358C2.72798 15.569 3.01413 15.6875 3.3125 15.6875H15.6875C15.9859 15.6875 16.272 15.569 16.483 15.358C16.694 15.147 16.8125 14.8609 16.8125 14.5625V6.6875C16.8125 6.38913 16.694 6.10298 16.483 5.892C16.272 5.68103 15.9859 5.5625 15.6875 5.5625ZM3.3125 5H7.06227L8.56273 6.125L7.06227 7.25H3.3125V5ZM15.6875 14.5625H3.3125V8.375H7.06227C7.30558 8.3744 7.54225 8.29551 7.73727 8.15L9.68773 6.6875H15.6875V14.5625Z" fill="#676A6D"/>
</g>
</svg>
