<svg width="22" height="16" viewBox="0 0 22 16" fill="none" xmlns="http://www.w3.org/2000/svg">
<g id="Vector">
<path d="M11.0228 0.00319387C13.3973 -0.0175104 15.7718 0.106715 18.1664 0.230941C18.7097 0.27235 19.253 0.355167 19.7762 0.56221C20.6012 0.85207 21.1647 1.43179 21.4665 2.25996C21.708 2.90179 21.8086 3.56433 21.8489 4.24757C21.9495 6.318 22.0702 8.38843 21.9495 10.4589C21.8891 11.3698 21.8086 12.2808 21.6275 13.1918C21.386 14.4962 20.6012 15.2623 19.3737 15.5728C18.5085 15.7799 17.6029 15.8213 16.7175 15.8627C14.1016 15.9662 11.4856 16.049 8.84949 15.9662C7.25979 15.9455 5.67008 15.8627 4.08038 15.7592C3.6578 15.7385 3.23522 15.6763 2.81264 15.5935C1.32354 15.2623 0.578999 14.4962 0.317402 12.9227C-0.00456392 10.9765 -0.0448096 9.00956 0.0356818 7.04265C0.0558047 6.00744 0.116173 4.97222 0.176542 3.9163C0.196665 3.52292 0.277156 3.12954 0.37777 2.73616C0.699736 1.39038 1.5449 0.645027 2.85288 0.375871C3.6578 0.210237 4.48283 0.210237 5.28775 0.168828C7.1793 0.0653067 9.11109 -0.0175104 11.0228 0.00319387ZM8.78912 4.62025C8.78912 4.70307 8.769 4.72377 8.769 4.74447C8.769 6.87702 8.769 9.03026 8.769 11.1628C8.769 11.432 8.86962 11.3077 8.97023 11.2456C10.7209 10.2104 12.4716 9.15449 14.2223 8.09857C14.2827 8.07787 14.343 8.05716 14.3632 7.97434C12.5119 6.85631 10.6605 5.75899 8.78912 4.62025Z" fill="#DE323B"/>
<path d="M8.78831 4.61981C10.6597 5.75855 12.511 6.85588 14.3623 7.97391C14.3422 8.05672 14.2818 8.07743 14.2215 8.09813C12.4708 9.15405 10.7201 10.21 8.96941 11.2452C8.8688 11.3073 8.76819 11.4108 8.76819 11.1624C8.76819 9.02983 8.76819 6.87658 8.76819 4.74404C8.76819 4.72333 8.76819 4.70263 8.78831 4.61981Z" fill="white"/>
</g>
</svg>
